<svg xmlns="http://www.w3.org/2000/svg" xmlns:xlink="http://www.w3.org/1999/xlink" viewBox="0 0 277 25">
    <g stroke="none" stroke-width="1" fill="none" fill-rule="evenodd">
        <path d="M58.9442611,20.2182619 C59.0479391,21.9395327 59.0127839,22.8689357 60.6323052,23.007066 L61.7352243,23.1100684 L61.6655098,23.9704061 L53.4320492,23.9704061 L53.3629305,23.1100684 L54.3621716,23.007066 C56.0502158,22.8344031 56.0502158,22.2836678 56.0502158,20.0801315 L55.9471336,5.72469675 L55.878015,5.72469675 L47.5539851,23.9704061 L46.8026178,23.9704061 L36.9395063,5.58716179 L36.8709835,5.58716179 C36.7339379,7.72163293 37.2046597,19.8050616 37.2046597,19.8050616 C37.2046597,22.352733 37.410824,22.9034682 38.7550625,23.007066 L40.0635499,23.1100684 L40.0301823,23.9704061 L32.6910931,23.9704061 L32.6219744,23.1100684 L33.380492,23.007066 C34.8266209,22.7998705 35.3098555,22.5938657 35.5166156,20.1837293 C35.5166156,20.1837293 35.4933774,6.8267626 35.5624961,4.93342418 C35.6310189,2.76442045 35.355736,2.24821781 33.2541717,1.9725525 L32.7024142,1.90348733 L32.8400557,1.04314959 L38.4219821,1.04314959 C38.4219821,1.04314959 46.6101581,17.8771906 47.4371984,19.3918613 L47.5063171,19.3918613 C48.4358437,17.7741882 56.0156564,1.04314959 56.0156564,1.04314959 L61.6655098,1.04314959 L61.700665,1.90348733 L60.9773026,1.9725525 C58.8066196,2.17915264 58.5313368,2.83289024 58.5647044,5.24302669 C58.633823,8.89216857 58.6683824,15.2610494 58.9442611,20.2182619 Z M139.694203,22.9033492 C142.761045,22.9033492 145.103333,21.5262134 145.103333,18.0836717 C145.103333,15.3639327 143.725131,12.1970563 138.247479,12.1970563 C136.387234,12.1970563 136.248996,12.4036564 136.248996,13.0919266 L136.248996,18.1872694 C136.248996,19.4262748 136.318115,21.1820783 136.972955,21.9394137 C137.627198,22.7312816 138.661595,22.9033492 139.694203,22.9033492 Z M136.248996,3.21143885 L136.248996,10.2001201 C136.248996,11.1640556 136.283556,11.2331208 138.041314,11.1640556 C141.555044,11.0265206 143.450444,9.99351995 143.450444,6.75757835 C143.450444,3.38350639 140.934764,2.10996838 138.316597,2.10996838 C137.558676,2.10996838 137.042073,2.17903356 136.731635,2.31656852 C136.387234,2.42016628 136.248996,2.59223383 136.248996,3.21143885 Z M143.622049,11.5427233 C145.48289,11.8868584 148.238698,13.6087246 148.238698,17.2918037 C148.238698,21.2850807 145.275534,23.970287 139.074519,23.970287 L130.977508,23.970287 L130.908985,23.1099493 L131.529265,23.0063515 C133.354951,22.696749 133.424666,22.3180813 133.424666,18.7028767 L133.424666,5.6215753 C133.424666,3.07390389 133.286428,2.42016628 131.736621,2.28203593 L130.633107,2.17903356 L130.667666,1.31810043 C132.528507,1.14603288 134.870794,1.04303051 138.075278,1.04303051 C140.245961,1.04303051 142.313562,1.21509806 143.863368,2.00696601 C145.344653,2.72976879 146.482131,4.10690456 146.482131,6.30984549 C146.482131,8.78845172 145.03779,10.0679436 142.967805,11.0265206 C142.57514,11.2081144 143.243088,11.4736581 143.622049,11.5427233 Z M171.02348,23.3513202 C175.15749,23.3513202 179.085336,20.2529135 179.085336,13.4708324 C179.085336,7.79081718 176.570847,1.66247368 169.990276,1.66247368 C166.406832,1.66247368 161.755623,4.10714272 161.755623,11.6459638 C161.755623,16.7413066 164.236149,23.3513202 171.02348,23.3513202 Z M170.575401,0.595535805 C178.534174,0.595535805 182.530543,6.34461623 182.530543,12.4038946 C182.530543,19.3580432 177.225091,24.4182581 170.575401,24.4182581 C162.927065,24.4182581 158.310417,18.9448429 158.310417,12.7480297 C158.310417,5.86235079 163.478823,0.595535805 170.575401,0.595535805 Z M234.212103,11.0371186 L242.790561,11.0371186 L242.82512,11.8980517 L242.274555,11.9665215 C240.82783,12.138589 240.792675,13.1025245 240.792675,14.858328 L240.792675,23.3164304 C238.966393,23.7981004 235.590305,24.4184962 233.729464,24.4184962 C229.630013,24.4184962 225.874368,23.2818978 223.221643,20.5966914 C221.154638,18.5312854 220.052314,15.8115465 220.052314,12.782205 C220.052314,9.85586591 221.0164,6.89499423 223.151928,4.62358352 C225.460848,2.21344707 228.872092,0.595178571 234.074461,0.595178571 C236.038384,0.595178571 237.864666,0.973846255 238.449791,1.11138122 C239.10463,1.24891618 240.58651,1.53589389 240.58651,1.53589389 L241.103113,6.41332417 L240.172394,6.51632655 C239.208308,2.7981195 236.624105,1.62817925 233.10978,1.62817925 C226.426126,1.62817925 223.498117,6.37879159 223.498117,11.5426042 C223.498117,18.1526177 226.908169,23.3509629 233.833142,23.3509629 C235.969266,23.3509629 237.24379,22.9038255 237.623942,22.3179623 C237.795547,22.0774249 237.967748,21.4576245 237.967748,20.3561541 L237.967748,15.4090632 C237.967748,12.5172567 237.864666,12.3106566 235.727946,12.0701192 L234.212103,11.8980517 L234.212103,11.0371186 Z M276.173615,23.0068278 L277.00006,23.1098302 L276.930941,23.9707634 L268.593802,23.9707634 L268.524684,23.1098302 L269.179523,23.0068278 C271.281088,22.6626928 271.281088,22.3179623 271.281088,18.703353 L271.281088,13.5228695 C271.281088,12.4892734 271.211969,12.421399 269.558484,12.421399 L259.704906,12.421399 C258.051421,12.421399 257.982303,12.4892734 257.982303,13.5228695 L257.982303,18.703353 C257.982303,22.3179623 258.154504,22.8002277 260.083867,23.0068278 L261.083108,23.1098302 L261.01399,23.9707634 L252.642292,23.9707634 L252.573173,23.1098302 L253.158894,23.0068278 C255.088257,22.6626928 255.157376,22.3179623 255.157376,18.703353 L255.157376,6.3103218 C255.157376,2.69511712 254.916057,2.10984931 253.123739,1.97231434 L252.228771,1.90384456 L252.29789,1.04291143 L260.635625,1.04291143 L260.704147,1.90384456 L260.049308,1.97231434 C258.051421,2.17891448 257.982303,2.69511712 257.982303,6.3103218 L257.982303,9.94219738 C257.982303,11.0097306 258.051421,11.0442632 259.704906,11.0442632 L269.558484,11.0442632 C271.211969,11.0442632 271.281088,11.0097306 271.281088,9.94219738 L271.281088,6.3103218 C271.281088,2.69511712 271.211969,2.17891448 269.179523,1.97231434 L268.524684,1.90384456 L268.593802,1.04291143 L276.827859,1.04291143 L276.896977,1.90384456 L276.173615,1.97231434 C274.175133,2.17891448 274.106014,2.69511712 274.106014,6.3103218 L274.106014,18.703353 C274.106014,22.3179623 274.175133,22.7656951 276.173615,23.0068278 Z M20.671897,20.1665225 C21.464378,22.0943935 21.9815762,22.8177917 23.4628602,22.9898593 L24.0825446,23.058329 L24.013426,23.9192622 L16.2620083,23.9192622 L16.1928897,23.058329 L16.7100878,22.9898593 C18.0191711,22.8177917 18.294454,22.6111916 18.3284174,22.3355263 C18.2604905,21.9907958 17.6747696,20.1319899 16.6064098,17.5158487 C15.0220437,13.5219764 13.4364858,9.563232 11.7144782,5.63902021 C10.6461184,7.91102631 9.19939368,11.4571658 8.40691267,13.2814391 C7.40767157,15.6225103 5.78815022,19.5121895 5.20302514,20.9929231 C4.92714641,21.7157258 4.89258709,22.0943935 4.89258709,22.3355263 C4.89258709,22.576659 5.23698861,22.8517289 6.44298979,22.9898593 L7.06327005,23.058329 L6.9941514,23.9192622 L0.0691782147,23.9192622 L5.95698926e-05,23.058329 L1.03385999,22.9898593 C1.86090033,22.9207941 2.37750261,22.5075938 2.8255821,21.784791 L12.1279983,0.646679758 L13.0235615,0.646679758 L20.671897,20.1665225 Z M87.2279085,22.2835488 C87.8481887,21.9394137 88.778907,20.7343454 89.6732784,18.9440094 L90.5354739,19.1851421 C90.2941545,20.3902103 89.4325549,23.0408841 88.9856671,23.970287 C85.8842658,23.9018173 82.8180197,23.8672847 79.7511778,23.8672847 L76.6509683,23.8672847 C75.1696842,23.8672847 73.9982423,23.9018173 71.9657967,23.970287 L71.896678,23.1099493 L73.0335606,23.0063515 C74.9974834,22.834284 75.1696842,22.317486 75.1696842,18.7034721 L75.1696842,6.30984549 C75.1696842,2.7291734 75.0999697,2.21297076 73.067524,1.97183803 L72.5169583,1.90336825 L72.5854811,1.04243512 C74.067361,1.11150029 75.2388028,1.14543749 76.6509683,1.14543749 L83.1284578,1.14543749 C85.3325084,1.14543749 87.7796659,1.04243512 87.7796659,1.04243512 C87.7796659,1.04243512 88.1919944,4.10630917 88.3302317,5.6215753 L87.468632,5.69004508 C86.9526256,4.07177659 86.6421875,2.86730375 84.8510613,2.41957089 C84.127103,2.24750334 83.024184,2.21297076 81.5083406,2.21297076 L79.0284113,2.21297076 C77.9946109,2.21297076 77.9946109,2.28203593 77.9946109,3.59010653 L77.9946109,8.79738257 C77.9946109,9.76191346 78.0982888,9.76191346 79.1320893,9.76191346 L81.1299756,9.76191346 C82.5761045,9.76191346 83.6444642,9.69344367 84.0585803,9.55590871 C84.4721004,9.41718297 84.712824,9.21058284 84.8850247,8.3502451 L85.1603076,6.93917213 L86.0564666,6.97310932 C86.0564666,7.79891448 85.919421,9.14151766 85.919421,10.4501837 C85.919421,11.6897845 86.0564666,12.9972597 86.0564666,13.7551904 L85.1603076,13.789723 L84.8510613,12.4471198 C84.712824,11.8273194 84.4721004,11.3105214 83.7827015,11.1384538 C83.3006586,11.0009189 82.4736182,10.9663863 81.1299756,10.9663863 L79.1320893,10.9663863 C78.0982888,10.9663863 77.9946109,11.0009189 77.9946109,11.8957892 L77.9946109,18.4278067 C77.9946109,20.2526754 78.0982888,21.423211 78.6494504,22.0078834 C79.0629706,22.4210837 79.786333,22.8003468 82.8180197,22.8003468 C85.4707457,22.8003468 86.4699868,22.6622164 87.2279085,22.2835488 Z M111.478006,11.6807941 C112.408129,10.9573959 113.20061,9.75292308 113.20061,7.4118518 C113.20061,4.69211284 111.512566,2.11050423 107.688398,2.11050423 C105.552274,2.11050423 105.448596,2.24803919 105.448596,3.2119747 L105.448596,11.2675938 C105.448596,11.8873942 105.448596,12.2660619 105.552274,12.4035969 C105.655952,12.5071946 106.172554,12.5756644 107.929717,12.5756644 C109.169682,12.5756644 110.479361,12.4375341 111.478006,11.6807941 Z M119.126938,22.6288151 C119.712063,23.1450177 120.573662,23.52309 121.503785,23.5921552 L121.538344,24.0744207 C121.227906,24.177423 120.67734,24.2458928 120.021905,24.2458928 C117.093896,24.2458928 115.336733,23.3855551 112.890172,19.9090761 C111.995204,18.6349427 110.582443,16.2593389 109.514083,14.7101356 C108.997481,13.9528002 108.446319,13.6086651 107.068118,13.6086651 C105.517715,13.6086651 105.448596,13.6431977 105.448596,14.3660005 L105.448596,18.7040079 C105.448596,22.3186172 105.517715,22.7318175 107.516197,23.0068874 L108.238964,23.1104852 L108.170441,23.9714183 L99.7641835,23.9714183 L99.6950648,23.1104852 L100.556664,23.0068874 C102.553955,22.7663501 102.623669,22.3186172 102.623669,18.7040079 L102.623669,6.34491393 C102.623669,3.07443974 102.520587,2.48857653 101.107826,2.31591359 L100.004907,2.17897402 L100.039466,1.31863628 C101.969426,1.14597334 104.346273,1.04297097 107.722957,1.04297097 C109.858485,1.04297097 111.890931,1.21503852 113.476488,2.07597165 C115.129973,2.93690478 116.335974,4.4861081 116.335974,6.89564916 C116.335974,10.1661233 113.746409,11.9427654 112.029764,12.6447296 C111.809895,12.7346334 112.029764,13.1954648 112.201964,13.4711301 C114.957772,17.9115446 116.784054,20.6658161 119.126938,22.6288151 Z M203.704444,11.6807941 C204.635162,10.9573959 205.427047,9.75292308 205.427047,7.4118518 C205.427047,4.69211284 203.739599,2.11050423 199.915431,2.11050423 C197.778712,2.11050423 197.675034,2.24803919 197.675034,3.2119747 L197.675034,11.2675938 C197.675034,11.8873942 197.675034,12.2660619 197.778712,12.4035969 C197.88239,12.5071946 198.398992,12.5756644 200.156155,12.5756644 C201.39612,12.5756644 202.705203,12.4375341 203.704444,11.6807941 Z M211.353375,22.6288151 C211.9385,23.1450177 212.800696,23.52309 213.730223,23.5921552 L213.764186,24.0744207 C213.454344,24.177423 212.903778,24.2458928 212.248343,24.2458928 C209.320334,24.2458928 207.563767,23.3855551 205.116609,19.9090761 C204.221642,18.6349427 202.808881,16.2593389 201.740521,14.7101356 C201.223919,13.9528002 200.672757,13.6086651 199.295151,13.6086651 C197.744153,13.6086651 197.675034,13.6431977 197.675034,14.3660005 L197.675034,18.7040079 C197.675034,22.3186172 197.744153,22.7318175 199.742635,23.0068874 L200.465997,23.1104852 L200.396879,23.9714183 L191.990621,23.9714183 L191.922098,23.1104852 L192.783102,23.0068874 C194.780989,22.7663501 194.850703,22.3186172 194.850703,18.7040079 L194.850703,6.34491393 C194.850703,3.07443974 194.747025,2.48857653 193.334264,2.31591359 L192.231345,2.17897402 L192.265904,1.31863628 C194.195268,1.14597334 196.572711,1.04297097 199.949395,1.04297097 C202.084923,1.04297097 204.117964,1.21503852 205.702926,2.07597165 C207.356411,2.93690478 208.562412,4.4861081 208.562412,6.89564916 C208.562412,10.1661233 205.978209,11.9564594 204.256201,12.6447296 C204.084001,12.8513297 204.256201,13.1954648 204.428402,13.4711301 C207.18421,17.9115446 209.010492,20.6658161 211.353375,22.6288151 Z" fill="#7D7878"></path>
    </g>
</svg>