<svg xmlns="http://www.w3.org/2000/svg" xmlns:xlink="http://www.w3.org/1999/xlink" width="572" height="140" viewBox="0 0 572 140"><defs><path id="a" d="M.06.607h571.61V140H.06z"/></defs><clipPath id="b"><use xlink:href="#a" overflow="visible"/></clipPath><g clip-path="url(#b)"><defs><path id="c" d="M0 0h572v140H0z"/></defs></g><g><defs><path id="d" d="M0 0h572v140H0z"/></defs><clipPath id="e"><use xlink:href="#d" overflow="visible"/></clipPath><path clip-path="url(#e)" fill="#272E80" d="M123.981 140c-5.22 0-7.89-3.12-7.89-8.67 0-6.119 2.85-9.39 8.16-9.39 5.25 0 7.92 3.119 7.92 8.67 0 6.12-2.85 9.39-8.19 9.39m.18-14.46c-1.89 0-2.37 1.41-2.37 5.37 0 3.99.51 5.49 2.31 5.49 1.89 0 2.37-1.41 2.37-5.37 0-3.99-.51-5.49-2.31-5.49zM144.861 139.64v-10.71c0-.51-.03-1.29-.12-1.649-.24-.96-.96-1.53-2.16-1.53-1.05 0-1.74.39-1.74.39v13.5h-5.52V122.3h5.37v1.8s1.23-2.159 4.65-2.159c3.21 0 4.44 1.979 4.83 3.75.24 1.199.24 2.579.24 3.359v10.59h-5.55M163.821 139.64v-1.74s-1.02 2.01-4.2 2.01c-4.14 0-6.24-3.12-6.24-8.7 0-5.79 2.911-9.24 7.11-9.24 2.31 0 3.18.781 3.18.781v-6.75h5.52v23.639h-5.37m-.15-14.25s-.33-.149-1.02-.149c-3.18 0-3.57 3.09-3.57 5.64 0 2.79.63 5.19 3.06 5.19.99 0 1.53-.33 1.53-.33V125.39zM177.921 132.17v.18c0 1.021.33 4.021 4.47 4.021 2.07 0 3.27-.72 3.27-.72l1.05 3.239s-1.68 1.021-5.94 1.021c-5.459 0-8.399-2.73-8.399-8.88 0-3.54 1.049-9.061 7.859-9.061 3.6 0 5.19 1.531 6.21 3.66.75 1.62.81 3.96.81 6.21v.33h-9.33m4.02-3.66c0-2.25-.18-3.689-1.98-3.689-1.169 0-1.859.54-2.04 2.46-.06.6-.06 1.89-.06 1.89h4.08v-.661zM200.451 127.1s-1.02-.81-2.55-.81c-1.41 0-2.07.54-2.07.54v12.81h-5.519V122.3h5.369v2.55s.81-2.789 3.75-2.789c1.32 0 1.92.329 1.92.329l-.9 4.71M211.911 139.64v-10.71c0-.51-.03-1.29-.12-1.649-.24-.96-.96-1.53-2.16-1.53-1.05 0-1.74.39-1.74.39v13.5h-5.52V122.3h5.37v1.8s1.23-2.159 4.65-2.159c3.21 0 4.44 1.979 4.83 3.75.24 1.199.24 2.579.24 3.359v10.59h-5.55M225.981 132.17v.18c0 1.021.33 4.021 4.47 4.021 2.07 0 3.27-.72 3.27-.72l1.05 3.239s-1.68 1.021-5.94 1.021c-5.46 0-8.4-2.73-8.4-8.88 0-3.54 1.05-9.061 7.86-9.061 3.6 0 5.189 1.531 6.209 3.66.75 1.62.811 3.96.811 6.21v.33h-9.33m4.02-3.66c0-2.25-.18-3.689-1.98-3.689-1.17 0-1.86.54-2.04 2.46-.06.6-.06 1.89-.06 1.89h4.08v-.661zM257.21 139.64v-10.59c0-.51-.029-1.38-.119-1.74-.24-.96-.87-1.56-2.19-1.56-1.14 0-1.77.42-1.77.42s.09.12.15.87c.06 1.08.03 1.77.03 2.31v10.29h-5.52v-10.59c0-.51-.06-1.38-.15-1.74-.24-.96-.84-1.56-2.04-1.56-1.05 0-1.71.42-1.71.42v13.47h-5.52V122.3h5.37v1.83s1.17-2.189 4.59-2.189c3.24 0 4.11 2.189 4.11 2.189s1.74-2.22 5.07-2.22c3.389 0 4.59 1.979 4.949 3.75.27 1.2.27 2.58.27 3.359v10.62h-5.52M271.251 132.17v.18c0 1.021.33 4.021 4.47 4.021 2.07 0 3.27-.72 3.27-.72l1.05 3.239s-1.68 1.021-5.94 1.021c-5.46 0-8.4-2.73-8.4-8.88 0-3.54 1.05-9.061 7.86-9.061 3.6 0 5.189 1.531 6.21 3.66.75 1.62.81 3.96.81 6.21v.33h-9.33m4.02-3.66c0-2.25-.18-3.689-1.98-3.689-1.17 0-1.86.54-2.04 2.46-.06.6-.06 1.89-.06 1.89h4.08v-.661zM293.181 139.64v-10.71c0-.51-.029-1.29-.12-1.649-.239-.96-.96-1.53-2.159-1.53-1.051 0-1.74.39-1.74.39v13.5h-5.519V122.3h5.369v1.8s1.23-2.159 4.65-2.159c3.21 0 4.439 1.979 4.83 3.75.24 1.199.24 2.579.24 3.359v10.59h-5.551M312.141 139.64v-1.74s-1.02 2.01-4.199 2.01c-4.141 0-6.24-3.12-6.24-8.7 0-5.79 2.91-9.24 7.109-9.24 2.311 0 3.181.781 3.181.781v-6.75h5.52v23.639h-5.371m-.15-14.25s-.33-.149-1.021-.149c-3.18 0-3.569 3.09-3.569 5.64 0 2.79.63 5.19 3.06 5.19.99 0 1.53-.33 1.53-.33V125.39zM333.051 139.91c-5.699 0-7.619-4.05-7.619-8.58 0-2.16.359-4.2 1.381-5.88 1.408-2.311 3.599-3.48 6.898-3.48 2.82 0 4.59.87 4.59.87l-1.11 3.36s-.899-.66-2.399-.66c-2.88 0-3.66 2.31-3.66 5.31 0 1.62.09 5.49 3.6 5.49 1.44 0 2.521-.689 2.521-.689l1.05 3.239c-.002 0-1.562 1.02-5.252 1.02M350 139.64v-1.8s-1.229 2.16-4.649 2.16c-3.21 0-4.44-1.89-4.8-3.66-.271-1.2-.271-2.7-.271-3.479V122.3h5.55v10.771c0 .51.061 1.29.12 1.649.271.96.96 1.471 2.16 1.471 1.08 0 1.739-.391 1.739-.391v-13.5h5.55v17.34H350M359.331 116.001h5.521v23.639h-5.521zM374.601 139.85c-2.85 0-4.59-.659-5.31-2.909-.27-.841-.33-1.95-.33-3.511v-7.649h-1.68v-3.09l.51-.149c1.47-.451 2.64-2.31 2.97-3.96l.09-.391h3.66v4.199h4.14v3.391h-4.14v8.1c0 1.17.24 2.311 1.859 2.311.96 0 1.651-.391 1.651-.391l.839 3.24c0-.001-1.86.809-4.259.809M390.65 139.64v-1.8s-1.229 2.16-4.649 2.16c-3.21 0-4.44-1.89-4.8-3.66-.271-1.2-.271-2.7-.271-3.479V122.3h5.55v10.771c0 .51.061 1.29.12 1.649.271.96.96 1.471 2.16 1.471 1.08 0 1.739-.391 1.739-.391v-13.5h5.55v17.34h-5.399M409.49 139.64v-1.8s-1.229 2.16-4.649 2.16c-3.21 0-4.44-1.89-4.8-3.66-.27-1.2-.27-2.7-.27-3.479V122.3h5.549v10.771c0 .51.061 1.29.12 1.649.271.96.96 1.471 2.16 1.471 1.08 0 1.739-.391 1.739-.391v-13.5h5.55v17.34h-5.399M428.96 127.1s-1.02-.81-2.55-.81c-1.41 0-2.07.54-2.07.54v12.81h-5.52V122.3h5.37v2.55s.81-2.789 3.75-2.789c1.319 0 1.92.329 1.92.329l-.9 4.71M450.771 139.64v-10.59c0-.51-.031-1.38-.121-1.74-.24-.96-.87-1.56-2.19-1.56-1.14 0-1.77.42-1.77.42s.09.12.149.87c.061 1.08.03 1.77.03 2.31v10.29h-5.52v-10.59c0-.51-.06-1.38-.15-1.74-.239-.96-.84-1.56-2.04-1.56-1.05 0-1.709.42-1.709.42v13.47h-5.521V122.3h5.37v1.83s1.17-2.189 4.59-2.189c3.24 0 4.109 2.189 4.109 2.189s1.74-2.22 5.07-2.22c3.39 0 4.59 1.979 4.949 3.75.271 1.2.271 2.58.271 3.359v10.62h-5.517M464.812 132.17v.18c0 1.021.328 4.021 4.469 4.021 2.069 0 3.27-.72 3.27-.72l1.05 3.239s-1.68 1.021-5.939 1.021c-5.46 0-8.399-2.73-8.399-8.88 0-3.54 1.051-9.061 7.859-9.061 3.6 0 5.189 1.531 6.21 3.66.75 1.62.81 3.96.81 6.21v.33h-9.33m4.019-3.66c0-2.25-.18-3.689-1.98-3.689-1.17 0-1.859.54-2.038 2.46-.062.6-.062 1.89-.062 1.89h4.08v-.661zM484.04 139.91c-5.699 0-7.619-4.05-7.619-8.58 0-2.16.359-4.2 1.38-5.88 1.409-2.311 3.6-3.48 6.899-3.48 2.819 0 4.59.87 4.59.87l-1.11 3.36s-.899-.66-2.399-.66c-2.88 0-3.66 2.31-3.66 5.31 0 1.62.09 5.49 3.6 5.49 1.44 0 2.521-.689 2.521-.689l1.05 3.239c-.002 0-1.562 1.02-5.252 1.02M496.551 132.17v.18c0 1.021.329 4.021 4.471 4.021 2.068 0 3.269-.72 3.269-.72l1.05 3.239s-1.68 1.021-5.939 1.021c-5.46 0-8.399-2.73-8.399-8.88 0-3.54 1.05-9.061 7.859-9.061 3.6 0 5.189 1.531 6.21 3.66.75 1.62.81 3.96.81 6.21v.33h-9.331m4.019-3.66c0-2.25-.18-3.689-1.98-3.689-1.17 0-1.859.54-2.039 2.46-.061.6-.061 1.89-.061 1.89h4.08v-.661zM518.48 139.64v-10.71c0-.51-.03-1.29-.12-1.649-.24-.96-.96-1.53-2.16-1.53-1.05 0-1.739.39-1.739.39v13.5h-5.521V122.3h5.37v1.8s1.229-2.159 4.649-2.159c3.21 0 4.44 1.979 4.83 3.75.24 1.199.24 2.579.24 3.359v10.59h-5.549M535.88 139.64v-1.5s-1.05 1.771-4.079 1.771c-3 0-4.95-1.98-4.95-5.311 0-2.01.57-3.42 1.8-4.38 1.53-1.229 3.78-1.229 5.1-1.229.99 0 1.98.09 1.98.09v-.96c0-.601-.061-1.14-.24-1.5-.36-.811-1.29-1.11-2.52-1.11-2.4 0-3.75.811-3.75.811l-1.05-3.271s2.101-1.08 6.209-1.08c3.9 0 5.55 1.351 6.18 3.15.391 1.08.421 2.16.421 3.87v10.649h-5.101m-.15-7.95s-.061-.061-.959-.061c-.812 0-1.5.15-2.041.78-.36.45-.51 1.109-.51 1.89 0 1.95 1.17 2.34 2.189 2.34 1.05 0 1.32-.18 1.32-.18v-4.769zM552.8 139.64v-1.5s-1.05 1.771-4.079 1.771c-3 0-4.949-1.98-4.949-5.311 0-2.01.569-3.42 1.799-4.38 1.53-1.229 3.78-1.229 5.1-1.229.99 0 1.98.09 1.98.09v-.96c0-.601-.061-1.14-.24-1.5-.36-.811-1.29-1.11-2.52-1.11-2.4 0-3.75.811-3.75.811l-1.05-3.271s2.1-1.08 6.209-1.08c3.9 0 5.55 1.351 6.179 3.15.392 1.08.422 2.16.422 3.87v10.649H552.8m-.15-7.95s-.061-.061-.96-.061c-.811 0-1.5.15-2.04.78-.36.45-.51 1.109-.51 1.89 0 1.95 1.17 2.34 2.189 2.34 1.05 0 1.32-.18 1.32-.18v-4.769zM567.41 139.85c-2.85 0-4.59-.659-5.31-2.909-.271-.841-.329-1.95-.329-3.511v-7.649h-1.681v-3.09l.51-.149c1.47-.451 2.64-2.31 2.97-3.96l.09-.391h3.66v4.199h4.14v3.391h-4.14v8.1c0 1.17.24 2.311 1.859 2.311.96 0 1.65-.391 1.65-.391l.84 3.24c.001-.001-1.859.809-4.259.809"/></g><path fill="#272E80" d="M14.56 33.44l4.961 17.44c2.08 7.2 2.24 10.08 2.24 10.08l7.84-25.921c.96-2.88 1.44-5.279 1.44-6.239s-.16-1.761-.64-2.241c-1.12-1.12-2.08-1.12-3.04-1.28v-2.24c1.92.16 5.12.16 7.52.16 2.88 0 5.44 0 7.52-.16v2.24c-3.36.64-4.48 3.041-5.76 6.72l-12.8 36.8H16.96L6.88 35.36C4.16 26.399 3.84 26.24 0 25.279v-2.24c2.24.16 5.76.16 8.8.16 3.36 0 6.08 0 8.48-.16v2.24c-.96.16-1.92.16-3.04 1.28-.48.48-.639 1.281-.639 2.241 0 1.119.959 4.319.959 4.64m3.2 75.04V95.682h8.961v-4.48H17.76V83.84h10.081v-4.641H10.24v29.281h7.52zm36.321-77.6c5.28 0 7.521 2.88 7.521 2.88l4.96-3.52 1.6.479s-.48 2.241-.48 20.801v2.72c0 6.399.32 7.521.96 8.479.64.801 1.6 1.121 2.72 1.121.96 0 1.44-.16 1.44-.16l.32 1.6s-1.601 4.001-6.88 4.001c-3.361 0-5.761-1.28-5.761-6.081v-.64s-2.24 6.88-9.44 6.88c-6.56 0-12.32-4.16-12.32-17.12 0-13.28 5.92-21.44 15.36-21.44zm14.561 62.561c0-9.441-5.6-14.561-15.041-14.561-8.96 0-14.56 5.76-14.56 15.52 0 9.439 5.44 14.721 14.88 14.721 9.121 0 14.721-5.92 14.721-15.68zM60.321 60.48V36s-.48-.8-3.84-.8c-7.84 0-9.92 8.64-9.92 16.8 0 9.44 3.2 11.84 7.68 11.84 3.68 0 6.08-3.36 6.08-3.36zm.48 33.44c0 7.041-2.239 10.561-6.88 10.561-4.96 0-7.04-3.359-7.04-10.561 0-7.039 2.24-10.398 7.04-10.398 4.8-.001 6.88 3.359 6.88 10.398zm52.641-25.281s-3.359-.159-8.48-.159c-4.64 0-8.32.159-8.32.159v-1.918s1.6-.321 2.881-1.602c1.439-1.439 1.439-4.64 1.439-13.12v-3.2c0-5.12-.16-7.04-.64-8.32-.799-2.56-2.72-3.841-5.6-3.841-4.8 0-7.04 3.04-7.04 3.04V55.36c0 7.2.32 7.84.8 8.8.96 2.08 3.52 2.562 3.52 2.562v1.918s-3.04-.159-8.32-.159c-4.48 0-8.16.159-8.16.159v-1.918s1.92 0 3.36-2.082c1.44-1.76 1.44-4.479 1.44-14.239v-4.8c0-5.6 0-6.72-1.12-8.001-.64-.799-2.08-.96-3.2-.96-.96 0-1.44.161-1.44.161l-.32-1.6s3.84-4.001 8.64-4.001c2.72 0 4.64 1.601 4.64 6.081v.64s3.52-6.881 11.2-6.881c5.441 0 8.001 3.04 8.961 6.881.48 1.759.639 4.48.639 6.4v11.36c0 5.76.321 7.68 1.12 8.959 1.281 1.921 4 2.082 4 2.082v1.917zm-4.96 26.882V79.199h-6.399v18.402c0 1.76-.161 2.559-.321 3.359-.48 2.24-2.4 3.359-5.28 3.359s-4.64-1.119-5.28-3.039c-.16-.801-.32-1.92-.32-3.52V79.199h-7.52V96.16c0 4 .64 6.881 2.08 8.801 1.76 2.4 5.12 4 10.56 4 5.92 0 9.121-2.08 10.721-5.121 1.44-1.6 1.759-3.68 1.759-8.319zm29.441-62.081v-.321c0-8.48.16-10.56-.96-12.32-1.6-2.4-4.64-2.72-4.64-2.72v-1.92l7.84-.64c4-.32 5.28-1.44 5.28-1.44l.64.48s-.8 3.2-.8 28.161v11.52c0 4.479 0 7.2 1.12 8.64.64.801 1.44.961 2.56.961.96 0 1.44-.16 1.44-.16l.321 1.6s-1.6 4.001-6.881 4.001c-3.36 0-5.76-1.601-5.76-6.081v-.64s-2.24 6.88-9.44 6.88c-6.56 0-12.32-4.16-12.32-17.12 0-13.28 5.92-21.44 15.2-21.44 4.8-.001 6.4 2.559 6.4 2.559zm0 27.04V36s-.48-.8-3.84-.8c-7.84 0-9.92 8.64-9.92 16.8 0 9.44 3.2 11.84 7.68 11.84 3.68 0 6.08-3.36 6.08-3.36zm12.96 48V79.199h-5.44V98.72s-.64-1.279-1.76-3.039l-11.2-16.482h-6.72v29.281h5.6V89.121s.48 1.279 1.6 2.879l11.36 16.48h6.56zm29.761-68.96c0 11.2-12 11.52-18.4 11.52h-.96v.32c0 8.96 3.36 12.96 10.56 12.96 4.8 0 7.2-2.56 7.2-2.56l1.44 1.76s-3.36 5.761-12.64 5.761c-11.841 0-14.401-8.321-14.401-17.281 0-14.56 7.201-21.281 16.801-21.281 7.52 0 10.4 4 10.4 8.801zm-7.84.32c0-3.201-.8-5.6-4.32-5.6-7.2 0-7.2 13.6-7.2 13.6h.96c8.64 0 10.56-2.56 10.56-8zm22.559 53.601c0-3.361-.799-8.961-6.559-12.16-2.561-1.441-6.401-2.082-12.321-2.082-3.68 0-6.56.162-8.16.162v28.959s4.16.32 7.68.32c4.16 0 8.48-.32 11.2-1.439 5.281-2.4 8.16-7.041 8.16-13.76zm-7.84.479c0 5.762-2.08 8.48-4 9.441-1.28.639-2.72.959-5.12.959h-2.56V83.361h2.24c2.72 0 4.16.318 5.6 1.119 2.401 1.28 3.84 4.801 3.84 9.44zm26.881-25.44h28.962c4.96 0 15.04.159 15.04.159s.16-1.279.96-4.799c1.28-5.601 1.92-7.521 1.92-7.521h-2.72c-4.961 8.479-6.881 8.479-15.84 8.479h-4c-2.401 0-3.041-.479-3.041-2.08 0-.479.16-2.399.319-3.199l3.681-22.56h8.16c5.76 0 6.24.639 7.521 5.92h2.56s.16-1.92.96-7.201c.8-5.28 1.761-8.32 1.761-8.32h-2.721c-2.88 5.12-3.68 5.921-9.279 5.921h-8.48l4-26.081h4.8c7.841 0 11.04.32 12.479 1.92 1.121 1.28 2.08 3.84 2.4 5.92h2.721s0-2.4.8-6.72c.64-3.68 1.12-5.12 1.12-5.12l-.48-.48c-4.16.96-9.12.96-13.119.96h-13.121c-7.361 0-11.681-.32-11.681-.32l-.319 2.24c5.44.96 5.279 4.16 5.279 6.08 0 1.76-.96 8-1.279 10.24l-5.281 33.121c-1.119 6.88-1.6 11.04-6.399 11.04-1.44 0-2.72-.319-3.36-1.28-.8-1.279-.959-2.879-.959-9.12V44.32c0-1.92-.16-4.641-.641-6.4-.96-3.841-3.52-6.881-8.96-6.881-7.681 0-11.201 6.881-11.201 6.881v-.64c0-4.48-1.92-6.081-4.64-6.081-4.801 0-8.64 4.001-8.64 4.001l.32 1.6s.48-.161 1.44-.161c1.121 0 2.56.161 3.201.96 1.119 1.281 1.119 2.401 1.119 8.001v4.8c0 9.76 0 12.479-1.439 14.239-1.44 2.082-3.36 2.082-3.36 2.082v1.918s3.681-.159 8.161-.159c5.279 0 8.32.159 8.32.159v-1.918s-2.561-.481-3.521-2.562c-.481-.96-.8-1.6-.8-8.8v-15.68s2.24-3.04 7.04-3.04c2.88 0 4.8 1.281 5.601 3.841.479 1.28.639 3.2.639 8.32V52c0 8.48 0 11.68-1.439 13.12-1.279 1.28-2.88 1.602-2.88 1.602v1.918c-.003-.001 4.476-.16 8.316-.16zm-8.8 40h6.562l2.72-8.16h9.12l2.72 8.16h7.68l-10.399-29.281h-7.521l-10.882 29.281zm12.8-19.679c.48-1.76.961-3.359.961-3.68 0 .32.48 1.76.96 3.68l2.4 7.199h-6.72l2.399-7.199zm47.522-4.961v-4.641h-25.279v4.641h8.799v24.641h7.521V83.84h8.959zm33.762-18.72s-2.721 4-8 4c-4 0-5.28-2.24-5.28-4.64 0-2.08.639-4.64 1.28-8l1.6-7.52c1.28-5.92 1.439-7.68 1.439-8.96 0-.96 0-3.68-4-3.68-5.121 0-8.641 3.839-8.641 3.839l-4.8 28.48h-7.681c2.561-12.799 4.961-25.919 4.961-29.119 0-1.28-.32-3.04-3.521-3.04-1.12 0-1.44.159-1.44.159l-.319-1.6s4.64-4 9.44-4c1.76 0 3.68.801 3.68 3.52 0 2.241-.639 4.001-.639 4.001s5.119-7.521 12.479-7.521c7.84 0 8.16 5.281 8.16 7.201 0 2.399-.8 5.44-1.76 10.08l-1.12 5.76c-.32 1.76-1.12 5.44-1.12 7.04 0 2.4 1.92 2.561 3.68 2.561.64 0 1.28-.16 1.28-.16l.322 1.599zm-21.762 43.36h7.521V79.199h-7.521v29.281zm51.202-15.039c0-9.441-5.601-14.561-15.041-14.561-8.96 0-14.56 5.76-14.56 15.52 0 9.439 5.439 14.721 14.88 14.721 9.12 0 14.721-5.92 14.721-15.68zm11.2-78.722c-3.04 12.8-8 42.561-8 46.241 0 2.24 1.279 2.721 3.68 2.721.8 0 1.28-.16 1.28-.16l.319 1.6s-2.72 4-8.16 4c-5.12 0-5.12-3.52-5.12-4 0-1.76.641-3.199.641-3.199-3.681 6.399-8.48 7.199-10.881 7.199-2.88 0-10.24-.32-10.24-12.16 0-8 2.4-13.6 3.681-16.16 4.16-8 9.92-9.761 14.88-9.761 4.8 0 6.721 2.08 6.721 2.08l.159-1.12c.641-4.96 1.28-7.36 1.28-8.96 0-2.08-.8-4.32-5.439-4.96l.319-1.92 7.2-.64c4-.32 6.561-1.44 6.561-1.44l1.119.639zM321.287 93.92c0 7.041-2.24 10.561-6.88 10.561-4.96 0-7.04-3.359-7.04-10.561 0-7.039 2.24-10.398 7.04-10.398s6.88 3.359 6.88 10.398zm7.521-58.881s-1.601-.639-3.521-.639c-4.319 0-7.2 1.44-9.6 5.759-2.72 4.641-3.84 11.841-3.84 16.961 0 3.84.96 7.04 5.28 7.04 2.881 0 5.12-1.6 7.521-3.84l4.16-25.281zm42.081 3.841c0 10.88-13.28 12.16-21.44 12.16 0 0-.16 1.6-.16 3.36 0 4.8 1.44 9.92 8.16 9.92 5.92 0 8-2.56 8-2.56l1.601 1.92s-4 5.601-13.44 5.601c-11.2 0-12.32-8.642-12.32-14.241 0-11.36 5.28-24.321 19.84-24.321 7.679 0 9.759 4 9.759 8.161zm-2.561 69.6V79.199h-5.439V98.72s-.641-1.279-1.761-3.039l-11.2-16.482h-6.72v29.281h5.6V89.121s.48 1.279 1.601 2.879l11.36 16.48h6.559zm-5.279-69.28c0-1.44 0-4.96-3.841-4.96-7.04 0-8.64 8.64-9.28 13.76 1.12 0 3.36 0 5.921-.48 5.279-.96 7.2-4.32 7.2-8.32z"/></svg>